<svg xmlns="http://www.w3.org/2000/svg" version="1.1" xmlnsXlink="http://www.w3.org/1999/xlink" xmlnsSvgjs="http://svgjs.dev/svgjs" width="100%" height="100%" viewBox="0 0 1000 600"><rect width="1000" height="600" x="0" y="0" fill="#ffff"/><g><rect width="333.3333333333333" height="333.3333333333333" rx="13.333333333333334" ry="13.333333333333334" y="267.9226486669605" fill="#6a33b2" transform="matrix(0.5087496830665019,0,0,0.5087496830665019,0,78.90283364344877)" x="245.7003936767578"/><path d="M298.4091491223815 359.58931126663583L413.7798870774561 359.58931126663583L413.7798870774561 377.7756834560106L366.5854997430457 377.7756834560106L366.5854997430457 509.58930667982565L345.60353645679197 509.58930667982565L345.60353645679197 377.7756834560106L298.4091491223815 377.7756834560106L298.4091491223815 359.58931126663583ZM456.85603806485113 509.58930667982565L435.844014659276 509.58930667982565L435.844014659276 359.58931126663583L526.3249738163304 359.58931126663583L526.3249738163304 377.5652626207616L456.85603806485113 377.5652626207616L456.85603806485113 422.8057421992888L518.5394029121187 422.8057421992888L518.5394029121187 440.5412125988443L456.85603806485113 440.5412125988443L456.85603806485113 509.58930667982565Z " fill="#ffff" transform="matrix(0.5087496830665019,0,0,0.5087496830665019,0,78.90283364344877)"/><path d="M662.3670653735185 375.37461039609923L763.8477642357462 375.37461039609923L763.8477642357462 391.37143760080164L722.3353366136259 391.37143760080164L722.3353366136259 507.31538353901647L703.8794929956388 507.31538353901647L703.8794929956388 391.37143760080164L662.3670653735185 391.37143760080164L662.3670653735185 375.37461039609923ZM766.1216933921172 458.00285008980995L766.1216933921172 458.00285008980995Q766.1216933921172 444.86165484892217 769.9292026772033 435.0784712691868Q773.7367119622895 425.2688466527495 780.0296786973626 418.7907926607626Q786.2962043957335 412.3127386687757 794.4929257733496 409.0869321911332Q802.6896471509658 405.83468467678875 811.2565430424097 405.83468467678875L811.2565430424097 405.83468467678875Q831.2459667891122 405.83468467678875 841.9017045800131 418.31485400012684Q852.557442370914 430.7950233234649 852.557442370914 456.28418270418075L852.557442370914 456.28418270418075Q852.557442370914 457.4475883190682 852.557442370914 459.24557881480337Q852.557442370914 461.0435693105385 852.3723551140001 462.57714943925373L852.3723551140001 462.57714943925373L784.6039780468064 462.57714943925373Q785.7409426249918 477.99227383651237 793.5410484520781 486.0039079572146Q801.3411542791645 493.9891010412148 817.9196842913105 493.9891010412148L817.9196842913105 493.9891010412148Q827.22692921041 493.9891010412148 833.625660092291 492.37619780239356Q839.99794993747 490.76329456357234 843.2237564151125 489.22971443485704L843.2237564151125 489.22971443485704L845.7092138650993 504.08957706137403Q842.4569663507549 505.7818034103012 834.3660091199467 507.68555805284427Q826.2750518891386 509.5893126953874 816.0159296487674 509.5893126953874L816.0159296487674 509.5893126953874Q803.0598216647936 509.5893126953874 793.6468125988861 505.70248030019525Q784.2073624962766 501.7892068683011 778.1259240548195 494.94097836248636Q772.0180445766604 488.0927498566716 769.0830895027398 478.6532997540621Q766.1216933921172 469.2402906881546 766.1216933921172 458.00285008980995ZM784.9741525606343 448.2989896201806L834.1015987529269 448.2989896201806Q834.2866860098408 436.2947589574783 828.0994834215757 428.60041727719994Q821.9122808333107 420.8796345602196 811.0450147487938 420.8796345602196L811.0450147487938 420.8796345602196Q804.9635763073367 420.8796345602196 800.3099538477869 423.2593278633985Q795.6298903515351 425.6390211665773 792.4040838738927 429.44653045166353Q789.1518363595482 433.25403973674975 787.353845863813 438.19851360002133Q785.5558553680779 443.169428499995 784.9741525606343 448.2989896201806L784.9741525606343 448.2989896201806ZM911.5738362897499 494.57080384865856L911.5738362897499 494.57080384865856Q917.866803024823 494.57080384865856 922.7055127412867 494.27995244493667Q927.5706634944523 493.9891010412148 930.7964699720948 493.22231097685716L930.7964699720948 493.22231097685716L930.7964699720948 463.7141140174392Q928.8927153295517 462.76223669616763 924.6092673838297 462.101210778618Q920.3258194381077 461.4401848610683 914.2443809966506 461.4401848610683L914.2443809966506 461.4401848610683Q910.2517844546506 461.4401848610683 905.7568082153127 461.99544663181Q901.2882730126769 462.57714943925373 897.5865278743986 464.3751399349889Q893.8583416994185 466.19957146742604 891.3993252861336 469.3460548349625Q888.9138678361468 472.46609716579707 888.9138678361468 477.62209932268456L888.9138678361468 477.62209932268456Q888.9138678361468 487.14087253540004 895.0217473143058 490.8426176736783Q901.103185755763 494.57080384865856 911.5738362897499 494.57080384865856ZM910.0402561610347 405.83468467678875L910.0402561610347 405.83468467678875Q920.7224349886377 405.83468467678875 928.0466021550882 408.61099353049747Q935.3707693215387 411.3608613475041 939.8393045241745 416.41109935758374Q944.3078397268104 421.4613373676633 946.2115943693535 428.41533002028604Q948.1153490118966 435.3428816362067 948.1153490118966 443.72469027073674L948.1153490118966 443.72469027073674L948.1153490118966 505.5967161533873Q945.8414198555257 505.9933317039171 941.7430591667177 506.6543576214668Q937.6446984779096 507.31538353901647 932.515137357724 507.8970863464602Q927.3855762375384 508.45234811720195 921.3834609061872 508.9282867778377Q915.3813455748361 509.4042254384735 909.484994390293 509.4042254384735L909.484994390293 509.4042254384735Q901.103185755763 509.4042254384735 894.0698699930343 507.68555805284427Q887.0101131936036 505.9933317039171 881.880552073418 502.26514552893684Q876.7245499165306 498.5634003906586 873.8689179527158 492.45552091249954Q871.0132859889013 486.3740824710424 871.0132859889013 477.8071865795985L871.0132859889013 477.8071865795985Q871.0132859889013 469.6104652019824 874.3448566133517 463.7141140174392Q877.676427237802 457.81776283289605 883.3876911654314 454.19534080472374Q889.0989550930607 450.5729187765515 896.713973663233 448.88069242762424Q904.3289922334054 447.1620250419951 912.7108008679354 447.1620250419951L912.7108008679354 447.1620250419951Q915.3813455748361 447.1620250419951 918.2369775386508 447.4528764457169Q921.0926095024655 447.7172868127368 923.6573900625582 448.1932254733726Q926.222170622651 448.6691641340084 928.125925265194 449.0657796845382Q930.0296799077372 449.435954198366 930.7964699720948 449.6210414552799L930.7964699720948 449.6210414552799L930.7964699720948 444.67656759200827Q930.7964699720948 440.31379653618035 929.8445926508233 436.0303485904584Q928.8927153295517 431.74690064473646 926.433698916267 428.41533002028604Q923.9482414662801 425.0837593958356 919.6647935205581 423.0742406064846Q915.3813455748361 421.06472181713355 908.5331170690214 421.06472181713355L908.5331170690214 421.06472181713355Q899.7811339206636 421.06472181713355 893.1973157818687 422.3074505421269Q886.6399386797758 423.5501792671203 883.3876911654314 424.8722311022197L883.3876911654314 424.8722311022197L881.2988492659744 410.2238967693187Q884.7361840372328 408.69031664060344 892.7213771212329 407.26250065869607Q900.7330112419351 405.83468467678875 910.0402561610347 405.83468467678875ZM977.4384587144006 507.31538353901647L977.4384587144006 411.1757740905902Q983.5463381925598 409.64219396187497 993.541050065911 407.9499676129478Q1003.5357619392622 406.23130022731857 1016.6505161434478 406.23130022731857L1016.6505161434478 406.23130022731857Q1026.1692893561635 406.23130022731857 1032.6473433481506 408.79608078741137Q1039.1253973401372 411.3608613475041 1043.5146094326672 416.30533521077575L1043.5146094326672 416.30533521077575Q1044.8366612677664 415.3534578895042 1047.692293231581 413.66123154057703Q1050.5479251953957 411.94256415494783 1054.7256089943098 410.3296609161266Q1058.9297338299257 408.69031664060344 1064.0592949501115 407.474028952312Q1069.215297106999 406.23130022731857 1075.1116482915422 406.23130022731857L1075.1116482915422 406.23130022731857Q1086.5341761468007 406.23130022731857 1093.7525791664434 409.562870851769Q1100.9974232227878 412.8944414762194 1105.0957839115958 418.97587991767654Q1109.194144600404 425.0837593958356 1110.6219605823112 433.43912699366365Q1112.0497765642185 441.82093562819364 1112.0497765642185 451.7363243914389L1112.0497765642185 451.7363243914389L1112.0497765642185 507.31538353901647L1094.334281973887 507.31538353901647L1094.334281973887 455.5438336765251Q1094.334281973887 446.7654094914653 1093.4881687994234 440.49888379309425Q1092.6156145882578 434.20591705802127 1090.2359212850788 430.02823325910725Q1087.8562279819 425.8241084234912 1083.7578672930922 423.8410306708422Q1079.685947640986 421.83151188149117 1073.207893648999 421.83151188149117L1073.207893648999 421.83151188149117Q1064.2443822070254 421.83151188149117 1058.45379516929 424.21120518467Q1052.636767094853 426.5908984878489 1050.5479251953957 428.49465313039195L1050.5479251953957 428.49465313039195Q1052.0815053241113 433.43912699366365 1052.821854351767 439.3619192149088Q1053.5886444161245 445.258270399452 1053.5886444161245 451.7363243914389L1053.5886444161245 451.7363243914389L1053.5886444161245 507.31538353901647L1035.8995908624947 507.31538353901647L1035.8995908624947 455.5438336765251Q1035.8995908624947 446.7654094914653 1034.9477135412233 440.49888379309425Q1033.9958362199518 434.20591705802127 1031.6161429167728 430.02823325910725Q1029.2364496135938 425.8241084234912 1025.1380889247857 423.8410306708422Q1021.0397282359778 421.83151188149117 1014.7467615009049 421.83151188149117L1014.7467615009049 421.83151188149117Q1012.1026578307061 421.83151188149117 1009.0354975732756 422.01659913840507Q1005.9947783525471 422.228127432021 1003.2449105355403 422.49253779904086Q1000.4686016818317 422.7833892027627 998.1946725254608 423.1800047532925Q995.9207433690898 423.5501792671203 995.1539533047322 423.7352665240343L995.1539533047322 423.7352665240343L995.1539533047322 507.31538353901647L977.4384587144006 507.31538353901647ZM1204.9371384983003 507.31538353901647L1186.4812948803133 507.31538353901647L1186.4812948803133 375.37461039609923L1266.0423743165934 375.37461039609923L1266.0423743165934 391.18635034388774L1204.9371384983003 391.18635034388774L1204.9371384983003 430.9801105803788L1259.1941458107785 430.9801105803788L1259.1941458107785 446.5803222345514L1204.9371384983003 446.5803222345514L1204.9371384983003 507.31538353901647ZM1305.2808727823426 408.3201421267756L1305.2808727823426 507.31538353901647L1287.565378192011 507.31538353901647L1287.565378192011 408.3201421267756L1305.2808727823426 408.3201421267756ZM1296.3173613403687 390.41956027953006L1296.3173613403687 390.41956027953006Q1291.5579747340112 390.41956027953006 1288.226404109561 387.2730769119936Q1284.8948334851102 384.1530345811591 1284.8948334851102 378.81194516735764L1284.8948334851102 378.81194516735764Q1284.8948334851102 373.4708557535562 1288.226404109561 370.35081342272167Q1291.5579747340112 367.20433005518515 1296.3173613403687 367.20433005518515L1296.3173613403687 367.20433005518515Q1301.0767479467268 367.20433005518515 1304.408318571177 370.35081342272167Q1307.7398891956273 373.4708557535562 1307.7398891956273 378.81194516735764L1307.7398891956273 378.81194516735764Q1307.7398891956273 384.1530345811591 1304.408318571177 387.2730769119936Q1301.0767479467268 390.41956027953006 1296.3173613403687 390.41956027953006ZM1335.7409470630323 507.31538353901647L1335.7409470630323 411.1757740905902Q1341.8223855044894 409.64219396187497 1351.9228615246484 407.9499676129478Q1361.9968965081057 406.23130022731857 1375.1380917489937 406.23130022731857L1375.1380917489937 406.23130022731857Q1386.9307941180796 406.23130022731857 1394.7573409818683 409.562870851769Q1402.5574468089544 412.8944414762194 1407.2110692685042 418.89655680757056Q1411.891132764756 424.8722311022197 1413.794887407299 433.25403973674975Q1415.698642049842 441.63584837127974 1415.698642049842 451.7363243914389L1415.698642049842 451.7363243914389L1415.698642049842 507.31538353901647L1397.9831474595107 507.31538353901647L1397.9831474595107 455.5438336765251Q1397.9831474595107 446.3952349776375 1396.7404187345169 439.91718098565053Q1395.497690009524 433.43912699366365 1392.6420580457088 429.44653045166353Q1389.7864260818942 425.4539339096634 1385.0270394755366 423.6559434139283Q1380.267652869179 421.83151188149117 1373.2343371064503 421.83151188149117L1373.2343371064503 421.83151188149117Q1370.3787051426357 421.83151188149117 1367.3379859219071 422.01659913840507Q1364.2972667011786 422.228127432021 1361.52095784747 422.49253779904086Q1358.7710900304633 422.7833892027627 1356.5764839841981 423.1800047532925Q1354.3818779379335 423.5501792671203 1353.4300006166618 423.7352665240343L1353.4300006166618 423.7352665240343L1353.4300006166618 507.31538353901647L1335.7409470630323 507.31538353901647ZM1508.9826195344535 491.90025914175783L1508.9826195344535 429.26144319474963Q1505.7303720201094 426.5908984878489 1499.6489335786523 424.13188207456403Q1493.541054100493 421.6464246245772 1486.3226510808504 421.6464246245772L1486.3226510808504 421.6464246245772Q1478.7076325106782 421.6464246245772 1473.2872199867707 424.3962924415839Q1467.8403664261614 427.1726012952926 1464.429472691605 432.01131101175633Q1460.9921379203465 436.876461764922 1459.4849988283331 443.5396030138228Q1457.951418699618 450.2027442627236 1457.951418699618 457.81776283289605L1457.951418699618 457.81776283289605Q1457.951418699618 475.1366418726978 1466.5183145910619 484.5760919753073Q1475.0852104825058 493.9891010412148 1489.363370301579 493.9891010412148L1489.363370301579 493.9891010412148Q1496.6082143579238 493.9891010412148 1501.4469240743874 493.32807512366514Q1506.3120748275528 492.6670492061154 1508.9826195344535 491.90025914175783L1508.9826195344535 491.90025914175783ZM1508.9826195344535 412.7093542193055L1508.9826195344535 362.6300307057413L1526.671673088083 359.5893114850128L1526.671673088083 504.45975157520184Q1520.5902346466264 506.178418960831 1511.0714614339108 507.8970863464602Q1501.5526882211952 509.5893126953874 1489.1782830446655 509.5893126953874L1489.1782830446655 509.5893126953874Q1477.7557551894065 509.5893126953874 1468.6071564905187 505.9933317039171Q1459.4849988283331 502.3709096757448 1453.0069448363465 495.707768426844Q1446.5288908443595 489.0446271779432 1443.0122329629949 479.42008981841974Q1439.4955750816307 469.8219934955983 1439.4955750816307 457.81776283289605L1439.4955750816307 457.81776283289605Q1439.4955750816307 446.3952349776375 1442.4305301555514 436.876461764922Q1445.3919262661739 427.3576885522065 1451.1031901938031 420.5094600463918Q1456.8144541214324 413.66123154057703 1465.0904986091546 409.8537222554909Q1473.3665430968767 406.04621297040467 1484.0222808877775 406.04621297040467L1484.0222808877775 406.04621297040467Q1492.5891767792214 406.04621297040467 1499.1729949180162 408.3201421267756Q1505.7303720201094 410.5940712831465 1508.9826195344535 412.7093542193055L1508.9826195344535 412.7093542193055ZM1551.6055706980574 458.00285008980995L1551.6055706980574 458.00285008980995Q1551.6055706980574 444.86165484892217 1555.4130799831437 435.0784712691868Q1559.22058926823 425.2688466527495 1565.5135560033027 418.7907926607626Q1571.8065227383759 412.3127386687757 1579.9768030792898 409.0869321911332Q1588.1735244569063 405.83468467678875 1596.7404203483497 405.83468467678875L1596.7404203483497 405.83468467678875Q1616.7298440950526 405.83468467678875 1627.3855818859533 418.31485400012684Q1638.041319676854 430.7950233234649 1638.041319676854 456.28418270418075L1638.041319676854 456.28418270418075Q1638.041319676854 457.4475883190682 1638.041319676854 459.24557881480337Q1638.041319676854 461.0435693105385 1637.8562324199406 462.57714943925373L1637.8562324199406 462.57714943925373L1570.0878553527464 462.57714943925373Q1571.224819930932 477.99227383651237 1579.0249257580185 486.0039079572146Q1586.8250315851046 493.9891010412148 1603.4035615972507 493.9891010412148L1603.4035615972507 493.9891010412148Q1612.7372475530524 493.9891010412148 1619.1095373982312 492.37619780239356Q1625.4818272434104 490.76329456357234 1628.7076337210528 489.22971443485704L1628.7076337210528 489.22971443485704L1631.1930911710397 504.08957706137403Q1627.9672846933968 505.7818034103012 1619.876327462589 507.68555805284427Q1611.7853702317807 509.5893126953874 1601.4998069547078 509.5893126953874L1601.4998069547078 509.5893126953874Q1588.5436989707337 509.5893126953874 1579.1306899048263 505.70248030019525Q1569.6912398022168 501.7892068683011 1563.6098013607598 494.94097836248636Q1557.5283629193027 488.0927498566716 1554.5669668086798 478.6532997540621Q1551.6055706980574 469.2402906881546 1551.6055706980574 458.00285008980995ZM1570.4580298665742 448.2989896201806L1619.5854760588672 448.2989896201806Q1619.7705633157811 436.2947589574783 1613.5833607275158 428.60041727719994Q1607.396158139251 420.8796345602196 1596.5553330914358 420.8796345602196L1596.5553330914358 420.8796345602196Q1590.447453613277 420.8796345602196 1585.7938311537273 423.2593278633985Q1581.1137676574754 425.6390211665773 1577.887961179833 429.44653045166353Q1574.6621547021905 433.25403973674975 1572.8377231697532 438.19851360002133Q1571.039732674018 443.169428499995 1570.4580298665742 448.2989896201806L1570.4580298665742 448.2989896201806ZM1700.0984328164186 406.23130022731857L1700.0984328164186 406.23130022731857Q1702.398803009492 406.23130022731857 1705.3337580834122 406.52215163104046Q1708.2951541940351 406.7865619980603 1711.1507861578498 407.26250065869607Q1714.0064181216644 407.73843931933186 1716.386111424843 408.21437797996765Q1718.765804728022 408.69031664060344 1719.9027693062076 409.0869321911332L1719.9027693062076 409.0869321911332L1716.862050085479 424.5020565883919Q1714.7732081860217 423.7352665240343 1709.908057432856 422.7040660926567Q1705.0693477163927 421.6464246245772 1697.45432914622 421.6464246245772L1697.45432914622 421.6464246245772Q1692.4834142462464 421.6464246245772 1687.6447045297828 422.7040660926567Q1682.779553776617 423.7352665240343 1681.2724146846035 424.13188207456403L1681.2724146846035 424.13188207456403L1681.2724146846035 507.31538353901647L1663.5569200942723 507.31538353901647L1663.5569200942723 412.4978259256896Q1669.8498868293455 410.2238967693187 1679.157131748445 408.21437797996765Q1688.4908177042466 406.23130022731857 1700.0984328164186 406.23130022731857Z " fill="#6a33b2" transform="matrix(0.5087496830665019,0,0,0.5087496830665019,0,78.90283364344877)"/></g></svg>